<?xml version="1.0" standalone="no"?>
<!DOCTYPE svg PUBLIC "-//W3C//DTD SVG 20010904//EN"
 "http://www.w3.org/TR/2001/REC-SVG-20010904/DTD/svg10.dtd">
<svg version="1.0" xmlns="http://www.w3.org/2000/svg"
 width="737.000000pt" height="737.000000pt" viewBox="0 0 737.000000 737.000000"
 preserveAspectRatio="xMidYMid meet">
<metadata>
Created by potrace 1.14, written by Peter Selinger 2001-2017
</metadata>
<g transform="translate(0.000000,737.000000) scale(0.100000,-0.100000)"
fill="#000000" stroke="none">
<path d="M2510 6066 c-114 -32 -184 -97 -233 -217 l-22 -54 -5 -1090 c-5 -994
-7 -1095 -23 -1150 -49 -170 -145 -271 -307 -321 -85 -26 -339 -37 -756 -31
-220 3 -429 2 -462 -3 -159 -22 -262 -116 -298 -270 -14 -61 -22 -943 -9
-1015 22 -122 70 -211 163 -304 117 -117 259 -180 427 -192 33 -2 895 -4 1915
-4 1488 0 1873 3 1945 13 125 19 230 38 298 57 32 8 66 15 76 15 10 0 31 6 46
14 15 8 57 22 94 32 36 10 68 21 71 24 3 3 36 16 75 29 38 12 74 26 80 31 5 4
54 31 107 59 54 28 114 62 135 76 21 14 46 31 57 38 22 14 55 41 106 84 20 18
42 33 48 33 6 0 13 8 16 18 4 11 17 25 31 32 14 7 27 21 31 32 3 10 10 18 15
18 9 0 72 64 116 118 13 15 34 41 49 57 34 40 104 142 104 152 0 5 8 13 18 19
9 7 37 51 62 100 25 49 47 91 50 94 9 8 60 118 60 128 0 5 11 34 24 63 14 30
28 71 31 92 4 20 11 37 15 37 4 0 11 17 16 38 4 20 8 39 9 42 1 3 5 31 9 63 5
31 12 60 17 62 4 3 11 37 15 75 4 39 11 73 15 76 11 7 12 564 1 564 -4 0 -14
51 -20 113 -7 61 -17 116 -23 121 -5 6 -9 23 -9 40 0 26 -7 54 -28 116 -3 8
-6 20 -8 25 -1 6 -7 28 -12 50 -26 103 -104 299 -172 435 -75 148 -165 299
-187 313 -7 4 -13 12 -13 18 0 5 -18 33 -40 62 -22 29 -46 59 -53 68 -103 136
-319 341 -487 465 -116 85 -129 94 -133 94 -3 0 -36 19 -73 42 -38 23 -91 52
-119 65 -27 13 -57 28 -65 33 -29 18 -126 58 -215 87 -163 54 -196 64 -248 74
-29 6 -72 14 -97 19 -173 36 -304 40 -1250 39 -713 -1 -946 -4 -980 -13z
m1840 -340 c57 -6 109 -13 235 -32 72 -11 231 -56 313 -89 402 -159 723 -461
919 -865 72 -149 109 -251 146 -410 24 -98 28 -121 42 -210 16 -102 17 -320 2
-425 -78 -554 -340 -991 -772 -1290 -195 -134 -485 -241 -707 -261 -40 -3 -76
-8 -79 -10 -4 -2 -778 -4 -1720 -4 -1804 0 -1760 -1 -1845 43 -18 9 -43 30
-58 47 l-26 32 0 224 c0 149 4 232 11 247 29 52 92 98 168 121 46 13 116 16
440 17 466 0 784 12 789 28 2 6 20 11 40 11 55 0 125 37 194 103 21 20 41 37
43 37 11 0 75 72 75 85 0 8 6 18 13 22 16 10 37 49 37 67 0 8 3 16 8 18 4 2
16 28 27 58 19 54 20 84 23 1165 1 611 5 1120 7 1132 11 50 109 122 192 142
43 11 1382 8 1483 -3z"/>
<path d="M3793 4990 c-61 -4 -129 -14 -150 -21 -21 -7 -39 -11 -41 -10 -1 1
-30 -13 -63 -30 -84 -45 -145 -126 -176 -233 -12 -41 -17 -167 -23 -641 -5
-364 -13 -615 -20 -655 -6 -36 -12 -123 -12 -195 -1 -110 2 -137 19 -175 75
-167 217 -214 578 -190 94 6 306 17 472 24 209 8 307 16 315 24 7 7 27 12 45
12 18 0 33 3 33 8 0 4 18 13 41 20 22 7 50 21 62 32 11 11 27 20 34 20 7 0 13
4 13 8 0 5 10 13 23 19 54 25 214 184 239 238 6 14 14 25 18 25 4 0 10 8 14
18 3 9 14 31 25 47 11 17 20 38 20 47 1 9 6 18 12 20 10 3 17 25 41 128 6 25
14 47 19 50 4 3 12 59 19 125 11 128 -1 357 -20 363 -6 2 -10 13 -10 24 0 33
-40 158 -50 158 -6 0 -10 10 -10 23 0 13 -12 43 -28 68 -15 24 -34 58 -42 74
-8 17 -17 32 -20 35 -3 3 -12 19 -20 35 -33 66 -120 187 -169 235 -47 46 -129
110 -140 110 -6 0 -11 4 -11 8 0 5 -33 25 -72 45 -91 44 -181 72 -333 103 -49
10 -512 13 -632 4z m873 -729 c187 -60 264 -160 264 -348 0 -99 -48 -287 -85
-333 -6 -8 -23 -35 -37 -60 -29 -50 -122 -145 -182 -187 -48 -32 -179 -88
-232 -98 -108 -21 -209 4 -262 63 -58 66 -57 57 -60 449 -3 353 -3 363 19 412
12 28 25 51 28 51 4 0 16 8 27 18 58 52 112 62 304 57 119 -3 169 -9 216 -24z"/>
</g>
</svg>
